<?xml version="1.0" standalone="no"?>
<!DOCTYPE svg PUBLIC "-//W3C//DTD SVG 20010904//EN"
 "http://www.w3.org/TR/2001/REC-SVG-20010904/DTD/svg10.dtd">
<svg version="1.0" xmlns="http://www.w3.org/2000/svg"
 width="394.000000pt" height="394.000000pt" viewBox="0 0 394.000000 394.000000"
 preserveAspectRatio="xMidYMid meet">
<metadata>
Created by potrace 1.14, written by Peter Selinger 2001-2017
</metadata>
<g transform="translate(0.000000,394.000000) scale(0.100000,-0.100000)"
fill="#000000" stroke="none">
<path d="M429 3306 c-2 -2 -26 -6 -54 -9 -159 -17 -291 -132 -339 -295 -17
-58 -15 -205 2 -238 5 -11 15 -30 21 -44 22 -47 46 -69 83 -75 31 -6 41 -3 62
19 32 31 33 64 4 119 -34 64 -32 167 4 227 76 130 209 166 352 96 81 -40 136
-16 136 59 0 58 -93 115 -210 131 -25 3 -48 8 -51 10 -3 2 -8 2 -10 0z"/>
<path d="M2117 3214 c-1 -1 -40 -5 -86 -8 -245 -20 -496 -119 -680 -270 -64
-53 -202 -194 -218 -223 -10 -18 -21 -33 -24 -33 -8 0 -89 -125 -89 -137 0 -5
-8 -18 -18 -31 l-18 -23 -114 119 c-116 119 -146 153 -210 232 -114 141 -133
158 -190 171 -84 19 -173 -49 -173 -133 0 -24 2 -52 4 -63 6 -26 59 -105 70
-105 5 0 9 -4 9 -10 0 -5 8 -18 18 -28 9 -10 44 -50 77 -88 97 -111 194 -211
329 -340 30 -29 116 -102 146 -126 19 -14 58 -44 86 -66 28 -22 66 -48 85 -57
36 -19 24 -35 -14 -18 -74 32 -203 98 -209 107 -17 25 -23 -16 -23 -152 0
-130 8 -237 20 -282 2 -8 7 -29 10 -46 15 -95 120 -334 178 -408 117 -150 272
-306 305 -306 6 0 12 -4 14 -8 10 -25 245 -152 282 -152 8 0 17 -4 20 -9 3 -5
18 -11 33 -14 16 -2 53 -11 83 -20 152 -41 411 -50 600 -21 25 4 48 7 52 6 3
-1 27 5 52 12 25 8 46 13 46 11 0 -2 37 9 83 24 196 67 327 145 469 282 50 47
59 61 58 90 0 19 0 42 0 52 0 9 0 37 0 62 0 25 0 53 0 63 1 9 0 89 0 177 0 88
0 206 0 261 l0 102 33 12 c189 73 510 250 641 352 67 53 86 86 86 154 0 50 -3
59 -34 89 -42 41 -107 54 -167 35 -21 -7 -39 -17 -39 -22 0 -4 -5 -8 -11 -8
-6 0 -29 -13 -52 -28 -23 -16 -49 -32 -57 -36 -23 -10 -56 -30 -71 -42 -23
-18 -285 -157 -299 -159 -3 0 -10 -3 -15 -7 -34 -21 -232 -93 -247 -90 -5 1
-8 -2 -8 -7 0 -5 -15 -12 -32 -16 -18 -4 -40 -9 -48 -12 -8 -2 -22 -5 -30 -8
-8 -2 -15 -4 -15 -5 0 -2 -5 -3 -75 -20 -191 -48 -463 -67 -635 -45 -141 17
-388 75 -405 94 -3 4 -23 12 -45 20 -22 8 -73 30 -112 49 -80 39 -80 37 -48
122 41 110 117 220 197 285 27 22 58 48 70 58 12 9 27 17 35 17 7 0 13 3 13 8
0 14 146 73 217 87 83 16 159 19 258 10 50 -5 56 -6 110 -20 100 -25 221 -82
267 -124 12 -12 25 -21 30 -21 7 0 20 -10 92 -72 52 -46 95 -62 166 -62 47 0
76 6 106 21 47 25 101 77 110 107 4 12 11 24 17 28 6 4 11 39 11 80 -1 111
-39 176 -159 274 -144 117 -330 215 -485 255 -144 36 -153 38 -393 53 -20 1
-38 1 -40 0z m-622 -1430 c75 -39 284 -100 440 -128 126 -23 379 -34 510 -22
22 2 72 7 110 10 l70 7 -3 -193 c-2 -184 -3 -194 -24 -209 -24 -19 -145 -61
-228 -80 -76 -18 -344 -18 -390 -1 -19 8 -46 16 -60 18 -39 8 -154 74 -213
124 -137 114 -223 270 -252 453 -7 41 -3 44 40 21z"/>
</g>
</svg>
